<?xml version="1.0" encoding="UTF-8" standalone="no"?>
<!-- Created with Inkscape (http://www.inkscape.org/) -->

<svg
   xmlns:dc="http://purl.org/dc/elements/1.1/"
   xmlns:cc="http://creativecommons.org/ns#"
   xmlns:rdf="http://www.w3.org/1999/02/22-rdf-syntax-ns#"
   xmlns:svg="http://www.w3.org/2000/svg"
   xmlns="http://www.w3.org/2000/svg"
   xmlns:sodipodi="http://sodipodi.sourceforge.net/DTD/sodipodi-0.dtd"
   xmlns:inkscape="http://www.inkscape.org/namespaces/inkscape"
   version="1.0"
   width="162.03424"
   height="178.08711"
   id="svg2811"
   inkscape:version="0.92.3 (2405546, 2018-03-11)"
   sodipodi:docname="hexicon.svg"
   inkscape:export-filename="/home/pacha/GitHub/gravity/docs/apple.png"
   inkscape:export-xdpi="90"
   inkscape:export-ydpi="90">
  <metadata
     id="metadata17">
    <rdf:RDF>
      <cc:Work
         rdf:about="">
        <dc:format>image/svg+xml</dc:format>
        <dc:type
           rdf:resource="http://purl.org/dc/dcmitype/StillImage" />
        <dc:title></dc:title>
      </cc:Work>
    </rdf:RDF>
  </metadata>
  <sodipodi:namedview
     pagecolor="#ffffff"
     bordercolor="#666666"
     borderopacity="1"
     objecttolerance="10"
     gridtolerance="10"
     guidetolerance="10"
     inkscape:pageopacity="0"
     inkscape:pageshadow="2"
     inkscape:window-width="1600"
     inkscape:window-height="832"
     id="namedview15"
     showgrid="false"
     fit-margin-top="0"
     fit-margin-left="0"
     fit-margin-right="0"
     fit-margin-bottom="0"
     inkscape:zoom="2.9364168"
     inkscape:cx="52.950546"
     inkscape:cy="93.849629"
     inkscape:window-x="0"
     inkscape:window-y="32"
     inkscape:window-maximized="1"
     inkscape:current-layer="text874"
     showguides="true"
     inkscape:guide-bbox="true" />
  <defs
     id="defs2813">
    <inkscape:perspective
       sodipodi:type="inkscape:persp3d"
       inkscape:vp_x="0 : 882.13641 : 1"
       inkscape:vp_y="0 : 1000 : 0"
       inkscape:vp_z="1500 : 882.13641 : 1"
       inkscape:persp3d-origin="750 : 588.09094 : 1"
       id="perspective4362" />
    <clipPath
       id="clp12">
      <path
         d="m 45.315,71.927 h 12.92 v 15.867 h -12.92 z"
         id="path184"
         inkscape:connector-curvature="0" />
    </clipPath>
    <clipPath
       id="clp21">
      <path
         d="m 123.91,72.178 h 26.23 v 15.294 h -26.23 z"
         id="path592"
         inkscape:connector-curvature="0" />
    </clipPath>
    <clipPath
       id="clp9">
      <path
         d="m 413.96,49.857 h 31.76 v 8.719 h -31.76 z"
         id="path100"
         inkscape:connector-curvature="0" />
    </clipPath>
  </defs>
  <g
     transform="translate(2002.1262,-3018.6231)"
     id="layer1">
    <g
       transform="translate(19.48863,19.49672)"
       id="g25472">
      <g
         id="g4353"
         transform="matrix(0.67573771,0,0,0.67573771,374.45067,977.3331)">
        <g
           transform="translate(80.542606)"
           id="g4347">
          <path
             sodipodi:type="star"
             style="fill:#e6e6e6;fill-opacity:1;stroke:#c30e2e;stroke-width:73.99320221;stroke-miterlimit:4;stroke-dasharray:none;stroke-opacity:1"
             id="path4524"
             sodipodi:sides="6"
             sodipodi:cx="-5551.2134"
             sodipodi:cy="-204.52565"
             sodipodi:r1="1701.6108"
             sodipodi:r2="1473.6381"
             sodipodi:arg1="1.0471976"
             sodipodi:arg2="1.5707963"
             inkscape:flatsided="true"
             inkscape:rounded="0"
             inkscape:randomized="0"
             d="m -4700.408,1269.1126 -1701.6109,-10e-5 -850.8053,-1473.63823 850.8055,-1473.63817 1701.6108,10e-5 850.8054,1473.63823 z"
             inkscape:transform-center-x="2.4194472e-05"
             inkscape:transform-center-y="2.3451815e-05"
             transform="matrix(0,0.07554322,-0.07936685,0,-3522.7322,3543.1083)" />
          <g
             id="g4538"
             transform="matrix(0.06148094,0,0,0.058519,-3423.2109,3066.8953)">
            <path
               inkscape:connector-curvature="0"
               id="path4526"
               d="M -444.71497,-699.8956 V 2621.7683"
               style="fill:none;fill-rule:evenodd;stroke:#ffffff;stroke-width:23.37500381;stroke-linecap:butt;stroke-linejoin:miter;stroke-miterlimit:4;stroke-dasharray:none;stroke-opacity:1" />
            <path
               style="fill:none;fill-rule:evenodd;stroke:#ffffff;stroke-width:25.82813263;stroke-linecap:butt;stroke-linejoin:miter;stroke-miterlimit:4;stroke-dasharray:none;stroke-opacity:1"
               d="M -1051.3825,-1066.7853 V 2988.658"
               id="path4528"
               inkscape:connector-curvature="0" />
            <path
               inkscape:connector-curvature="0"
               id="path4530"
               d="M -1658.05,-1062.7535 V 2992.6897"
               style="fill:none;fill-rule:evenodd;stroke:#ffffff;stroke-width:25.82813263;stroke-linecap:butt;stroke-linejoin:miter;stroke-miterlimit:4;stroke-dasharray:none;stroke-opacity:1" />
            <path
               style="fill:none;fill-rule:evenodd;stroke:#ffffff;stroke-width:23.58683395;stroke-linecap:butt;stroke-linejoin:miter;stroke-miterlimit:4;stroke-dasharray:none;stroke-opacity:1"
               d="M -2264.7175,-720.05437 V 2662.0858"
               id="path4532"
               inkscape:connector-curvature="0" />
            <path
               inkscape:connector-curvature="0"
               id="path4534"
               d="M -2871.3852,-357.19643 V 2283.1009"
               style="fill:none;fill-rule:evenodd;stroke:#ffffff;stroke-width:20.84012222;stroke-linecap:butt;stroke-linejoin:miter;stroke-miterlimit:4;stroke-dasharray:none;stroke-opacity:1" />
            <path
               style="fill:none;fill-rule:evenodd;stroke:#ffffff;stroke-width:20.87192154;stroke-linecap:butt;stroke-linejoin:miter;stroke-miterlimit:4;stroke-dasharray:none;stroke-opacity:1"
               d="M 161.95255,-369.29169 V 2279.0691"
               id="path4536"
               inkscape:connector-curvature="0" />
          </g>
          <g
             transform="matrix(0,0.058519,-0.06148094,0,-3446.8007,3203.9386)"
             id="g4546">
            <path
               style="fill:none;fill-rule:evenodd;stroke:#ffffff;stroke-width:25.08565712;stroke-linecap:butt;stroke-linejoin:miter;stroke-miterlimit:4;stroke-dasharray:none;stroke-opacity:1"
               d="M -444.71497,-925.67388 V 2899.9594"
               id="path4548"
               inkscape:connector-curvature="0" />
            <path
               inkscape:connector-curvature="0"
               id="path4550"
               d="M -1051.3825,-957.92792 V 2899.9594"
               style="fill:none;fill-rule:evenodd;stroke:#ffffff;stroke-width:25.1911869;stroke-linecap:butt;stroke-linejoin:miter;stroke-miterlimit:4;stroke-dasharray:none;stroke-opacity:1" />
            <path
               style="fill:none;fill-rule:evenodd;stroke:#ffffff;stroke-width:25.05920601;stroke-linecap:butt;stroke-linejoin:miter;stroke-miterlimit:4;stroke-dasharray:none;stroke-opacity:1"
               d="M -1658.05,-917.61037 V 2899.9594"
               id="path4552"
               inkscape:connector-curvature="0" />
            <path
               inkscape:connector-curvature="0"
               id="path4554"
               d="M -2264.7175,-901.48335 V 2859.6418"
               style="fill:none;fill-rule:evenodd;stroke:#ffffff;stroke-width:24.87326241;stroke-linecap:butt;stroke-linejoin:miter;stroke-miterlimit:4;stroke-dasharray:none;stroke-opacity:1" />
            <path
               style="fill:none;fill-rule:evenodd;stroke:#ffffff;stroke-width:20.03550529;stroke-linecap:butt;stroke-linejoin:miter;stroke-miterlimit:4;stroke-dasharray:none;stroke-opacity:1"
               d="M -2871.3852,-238.73614 V 2201.6181"
               id="path4556"
               inkscape:connector-curvature="0" />
            <path
               inkscape:connector-curvature="0"
               id="path4558"
               d="M 161.95255,-164.61323 V 2138.8987"
               style="fill:none;fill-rule:evenodd;stroke:#ffffff;stroke-width:19.46565628;stroke-linecap:butt;stroke-linejoin:miter;stroke-miterlimit:4;stroke-dasharray:none;stroke-opacity:1" />
          </g>
          <g
             id="g4508"
             transform="matrix(1,0,0.00587999,1,-3824.0458,9.8824452)">
            <g
               id="g870">
              <g
                 id="g885"
                 transform="translate(4.7194092e-5)">
                <g
                   transform="matrix(0.05008607,0,0,0.05008607,187.87741,3036.1825)"
                   id="g4483">
                  <path
                     d="m 2521.0571,315.59539 c 91.1595,-110.4132 152.7006,-263.9406 135.7503,-416.9661 -131.3208,5.271299 -290.2668,87.542399 -384.5568,197.9556 -84.4119,97.5825 -158.4588,253.9005 -138.393,403.8105 146.4549,11.3541 296.025,-74.5491 387.1995,-184.8"
                     style="fill:#00833c;fill-opacity:1;fill-rule:nonzero;stroke:none"
                     id="path190"
                     inkscape:connector-curvature="0" />
                  <g
                     id="g112"
                     transform="translate(0.35671168,-60.665355)">
                    <path
                       sodipodi:nodetypes="ccccccccccccccccccccccccccccccc"
                       inkscape:connector-curvature="0"
                       id="path60"
                       d="m 1814.8139,561.60853 c -11.2077,-0.0745 -22.4238,0.26802 -33.6122,1.08643 -48.2514,2.16797 -96.4362,8.99849 -143.3423,21.00418 -107.5708,23.50332 -208.6766,76.09957 -290.5471,149.71103 -91.5264,81.59629 -158.8672,188.59129 -198.0641,304.44523 -50.4792,147.462 -59.1067,306.4773 -42.8718,460.6448 20.3557,189.0758 76.2547,373.7437 159.3227,544.5896 36.4749,74.7858 79.7049,146.1765 128.229,213.745 54.4328,77.6696 112.0291,155.026 186.434,214.883 48.0052,38.1623 105.7138,67.7536 167.9027,70.9704 28.8892,0.4212 53.8345,-1.7133 80.0256,-2.9454 49.7208,-1.601 98.3644,-15.2543 144.2779,-34.2653 49.9765,-21.2603 99.7218,-44.7096 152.6609,-57.1079 30.5225,-6.9634 61.6808,-10.9432 92.9236,-12.055 31.2285,1.112 62.3388,5.0919 92.7784,12.055 52.7933,12.3983 102.2629,35.8476 151.9892,57.1079 45.69,19.011 94.1732,32.6643 143.875,34.2653 26.8505,0.1789 55.7602,4.094 79.9911,2.9454 62.2267,-3.2168 120.2832,-32.8081 168.7371,-70.9704 75.1088,-59.857 133.6148,-137.2134 188.961,-214.883 49.3188,-67.5685 93.3884,-138.9592 130.7429,-213.745 85.0771,-170.8459 143.1476,-355.5138 165.7268,-544.5896 18.048,-154.1675 11.2905,-313.1828 -37.4544,-460.6448 -37.8346,-115.85394 -103.9172,-222.84894 -194.484,-304.44523 -81.0046,-73.61146 -181.4921,-126.20771 -288.7863,-149.71103 -46.7651,-12.00569 -94.8696,-18.83621 -143.0954,-21.00418 -11.1789,-0.81841 -22.3908,-1.16096 -33.5995,-1.08643 -92.5823,0.79462 -181.8175,30.18899 -267.302,63.23437 -48.9502,18.16161 -96.946,40.40722 -147.7413,52.61112 -50.6515,-12.2039 -98.3825,-34.44951 -147.1192,-52.61112 -85.0958,-33.04538 -173.9854,-62.43975 -266.5583,-63.23437 z"
                       style="fill:#c30e2e;fill-opacity:1;fill-rule:nonzero;stroke:none;stroke-width:1" />
                    <path
                       sodipodi:nodetypes="ccccc"
                       inkscape:connector-curvature="0"
                       id="path4309"
                       d="m 2923.2169,771.08017 c -111.4365,-75.7686 -218.562,29.8074 -113.8941,109.13671 120.2649,107.24852 134.718,150.22742 161.8218,208.05632 35.6391,89.2482 142.4631,30.933 133.3056,-60.4779 -21.8337,-103.91942 -102.5205,-196.59813 -181.2333,-256.71513 z"
                       style="fill:#ffffff;fill-rule:evenodd;stroke:none;stroke-width:1px;stroke-linecap:butt;stroke-linejoin:miter;stroke-opacity:1" />
                  </g>
                </g>
                <g
                   aria-label="gravity"
                   style="font-style:normal;font-weight:normal;line-height:0%;font-family:sans-serif;letter-spacing:0px;word-spacing:0px;fill:#000000;fill-opacity:1;stroke:none;stroke-width:1px;stroke-linecap:butt;stroke-linejoin:miter;stroke-opacity:1"
                   id="text4502"
                   transform="matrix(0.0566597,0,0,0.0566597,180.93055,3180.4126)">
                  <g
                     id="g865"
                     transform="translate(-68.37497)">
                    <g
                       aria-label="gravity"
                       transform="skewX(-0.33689474)"
                       style="font-style:normal;font-weight:normal;font-size:417.89535522px;line-height:1.25;font-family:sans-serif;letter-spacing:0px;word-spacing:0px;fill:#000000;fill-opacity:1;stroke:none;stroke-width:26.1184597px"
                       id="text874">
                      <path
                         d="m 1705.0478,-147.27542 c -26.7453,15.88002 -55.1621,30.08846 -104.4738,28.83477 -58.0874,0 -97.3696,30.924261 -97.3696,81.071704 0,28.8347793 11.2832,48.475861 39.7,63.520094 -15.88,10.029488 -26.3274,26.327407 -26.3274,42.625326 0,23.820035 19.6411,43.879016 68.117,43.879016 h 32.1779 c 22.1485,0 31.7601,8.7758 31.7601,21.73055 0,14.20845 -9.1937,25.07373 -48.058,25.07373 -40.1179,0 -48.4759,-8.35791 -48.4759,-27.5811 h -59.3411 c 0,43.87901 22.1485,71.46011 106.1454,71.46011 76.057,0 116.1749,-27.99899 116.1749,-73.54958 0,-37.192691 -33.0137,-64.355889 -84.8327,-64.355889 h -33.4317 c -21.3126,0 -24.2379,-6.686326 -24.2379,-13.372651 0,-5.014744 2.5074,-10.029489 7.1042,-12.536861 7.9401,1.671582 16.298,2.507372 25.4917,2.507372 57.6695,0 93.1906,-31.342151 93.1906,-74.385373 0,-28.834779 -13.7905,-45.132698 -41.7895,-57.251664 27.999,0 48.4758,-2.507372 63.938,-8.775802 z m -102.8022,72.295892 c 22.1484,0 33.4316,11.283174 33.4316,35.939 0,25.491617 -11.7011,38.44637303 -33.4316,38.44637303 -20.059,0 -33.4316,-13.37265103 -33.4316,-37.61058203 0,-22.984244 12.9547,-36.774791 33.4316,-36.774791 z"
                         style="font-style:normal;font-variant:normal;font-weight:bold;font-stretch:normal;font-family:'Fira Sans';-inkscape-font-specification:'Fira Sans Bold';stroke-width:26.1184597px"
                         id="path887" />
                      <path
                         d="m 1866.6819,-117.60485 c -25.4916,0 -47.2221,18.387391 -57.2516,49.311647 l -5.4327,-43.043217 h -57.6695 v 221.90243 h 66.0274 V 0.6595311 c 7.1043,-33.8495241 18.3874,-54.3263961 45.9685,-54.3263961 7.5221,0 12.9548,1.253686 20.059,2.925267 l 10.4474,-63.937992 c -7.1042,-2.08947 -13.7906,-2.92526 -22.1485,-2.92526 z"
                         style="font-style:normal;font-variant:normal;font-weight:bold;font-stretch:normal;font-family:'Fira Sans';-inkscape-font-specification:'Fira Sans Bold';stroke-width:26.1184597px"
                         id="path889" />
                      <path
                         d="m 2075.3097,46.210125 v -86.086443 c 0,-51.401129 -27.5811,-78.564332 -91.937,-78.564332 -25.0737,0 -55.5801,5.85054 -83.5791,16.29792 l 15.0442,43.461121 c 22.1485,-7.522117 43.8791,-11.70107 58.0875,-11.70107 27.1632,0 37.6106,7.940011 37.6106,34.267419 v 9.611593 h -22.5664 c -67.2811,0 -104.0559,26.32740739 -104.0559,74.803269 0,40.535849 27.999,69.370628 72.2959,69.370628 26.3274,0 50.9832,-8.7758 66.8632,-33.431628 10.0295,22.148458 27.1632,30.088468 53.4906,32.177938 l 13.7906,-43.043217 c -10.4474,-3.761058 -15.0442,-10.029489 -15.0442,-27.163198 z m -99.877,24.23793 c -16.2979,0 -25.9095,-10.447383 -25.9095,-27.998988 0,-22.148454 14.6263,-32.5958381 44.7148,-32.5958381 h 16.2979 V 49.135392 c -7.94,13.372652 -19.6411,21.312663 -35.1032,21.312663 z"
                         style="font-style:normal;font-variant:normal;font-weight:bold;font-stretch:normal;font-family:'Fira Sans';-inkscape-font-specification:'Fira Sans Bold';stroke-width:26.1184597px"
                         id="path891" />
                      <path
                         d="m 2312.7591,-111.33642 h -67.2812 L 2204.5242,60.418567 2165.242,-111.33642 h -71.878 l 71.4601,221.90243 h 78.1465 z"
                         style="font-style:normal;font-variant:normal;font-weight:bold;font-stretch:normal;font-family:'Fira Sans';-inkscape-font-specification:'Fira Sans Bold';stroke-width:26.1184597px"
                         id="path893" />
                      <path
                         d="m 2369.0378,-228.34712 c -22.9842,0 -38.8642,16.29792 -38.8642,37.61058 0,21.31266 15.88,37.61058 38.8642,37.61058 22.9843,0 39.2822,-16.29792 39.2822,-37.61058 0,-21.31266 -16.2979,-37.61058 -39.2822,-37.61058 z m 33.4316,117.0107 h -66.0274 v 221.90243 h 66.0274 z"
                         style="font-style:normal;font-variant:normal;font-weight:bold;font-stretch:normal;font-family:'Fira Sans';-inkscape-font-specification:'Fira Sans Bold';stroke-width:26.1184597px"
                         id="path895" />
                      <path
                         d="m 2570.9858,58.32909 c -8.7758,5.014744 -16.298,7.104221 -23.8201,7.104221 -13.7905,0 -20.8947,-7.522116 -20.8947,-28.834779 V -65.367935 h 43.879 l 7.1042,-45.968485 h -50.9832 v -55.58009 l -66.0275,7.52212 v 48.05797 h -31.3422 v 45.968485 h 31.3422 V 37.434322 c 0,52.23692 23.82,79.818018 72.7138,80.235908 20.059,0 43.4611,-5.85053 60.1769,-17.5516 z"
                         style="font-style:normal;font-variant:normal;font-weight:bold;font-stretch:normal;font-family:'Fira Sans';-inkscape-font-specification:'Fira Sans Bold';stroke-width:26.1184597px"
                         id="path897" />
                      <path
                         d="m 2806.2021,-111.33642 h -68.1169 L 2694.6241,68.358579 2654.924,-111.33642 h -70.2064 l 67.6991,221.90243 h 22.5663 c -12.119,28.41688 -27.999,40.95374 -71.4601,46.38638 l 7.1042,46.38639 c 69.7885,-3.76106 107.3991,-36.3569 124.9507,-92.35488 z"
                         style="font-style:normal;font-variant:normal;font-weight:bold;font-stretch:normal;font-family:'Fira Sans';-inkscape-font-specification:'Fira Sans Bold';stroke-width:26.1184597px"
                         id="path899" />
                    </g>
                  </g>
                </g>
              </g>
            </g>
          </g>
          <path
             transform="matrix(0,0.07554322,-0.07936685,0,-3522.7322,3543.1083)"
             inkscape:transform-center-y="2.3451815e-05"
             inkscape:transform-center-x="2.4194472e-05"
             d="m -4700.408,1269.1126 -1701.6109,-10e-5 -850.8053,-1473.63823 850.8055,-1473.63817 1701.6108,10e-5 850.8054,1473.63823 z"
             inkscape:randomized="0"
             inkscape:rounded="0"
             inkscape:flatsided="true"
             sodipodi:arg2="1.5707963"
             sodipodi:arg1="1.0471976"
             sodipodi:r2="1473.6381"
             sodipodi:r1="1701.6108"
             sodipodi:cy="-204.52565"
             sodipodi:cx="-5551.2134"
             sodipodi:sides="6"
             id="path4560"
             style="fill:none;fill-opacity:1;stroke:#c30e2e;stroke-width:73.99320221;stroke-miterlimit:4;stroke-dasharray:none;stroke-opacity:1"
             sodipodi:type="star" />
        </g>
      </g>
    </g>
  </g>
</svg>
